<svg xmlns="http://www.w3.org/2000/svg" width="24" height="25" viewBox="0 0 24 25" fill="none">
  <mask id="mask0_74_53" style="mask-type:alpha" maskUnits="userSpaceOnUse" x="0" y="0" width="24" height="25">
    <rect y="0.5" width="24" height="24" fill="#D9D9D9"/>
  </mask>
  <g mask="url(#mask0_74_53)">
    <path d="M5.3077 22C4.80257 22 4.375 21.825 4.025 21.475C3.675 21.125 3.5 20.6974 3.5 20.1923V6.80772C3.5 6.30259 3.675 5.87502 4.025 5.52502C4.375 5.17502 4.80257 5.00002 5.3077 5.00002H6.69233V3.65384C6.69233 3.43463 6.76573 3.25162 6.91253 3.10482C7.05931 2.95804 7.24232 2.88464 7.46155 2.88464C7.68077 2.88464 7.86378 2.95804 8.01058 3.10482C8.15736 3.25162 8.23075 3.43463 8.23075 3.65384V5.00002H15.8077V3.63462C15.8077 3.4218 15.8794 3.2436 16.023 3.10002C16.1666 2.95643 16.3448 2.88464 16.5576 2.88464C16.7704 2.88464 16.9486 2.95643 17.0922 3.10002C17.2358 3.2436 17.3076 3.4218 17.3076 3.63462V5.00002H18.6923C19.1974 5.00002 19.625 5.17502 19.975 5.52502C20.325 5.87502 20.5 6.30259 20.5 6.80772V20.1923C20.5 20.6974 20.325 21.125 19.975 21.475C19.625 21.825 19.1974 22 18.6923 22H5.3077ZM5.3077 20.5H18.6923C18.7692 20.5 18.8397 20.4679 18.9038 20.4038C18.9679 20.3397 19 20.2692 19 20.1923V10.8077H4.99997V20.1923C4.99997 20.2692 5.03202 20.3397 5.09612 20.4038C5.16024 20.4679 5.23077 20.5 5.3077 20.5ZM4.99997 9.30774H19V6.80772C19 6.73079 18.9679 6.66026 18.9038 6.59614C18.8397 6.53204 18.7692 6.49999 18.6923 6.49999H5.3077C5.23077 6.49999 5.16024 6.53204 5.09612 6.59614C5.03202 6.66026 4.99997 6.73079 4.99997 6.80772V9.30774ZM12 14.5769C11.7551 14.5769 11.5465 14.4907 11.374 14.3183C11.2016 14.1458 11.1154 13.9372 11.1154 13.6923C11.1154 13.4475 11.2016 13.2388 11.374 13.0664C11.5465 12.8939 11.7551 12.8077 12 12.8077C12.2448 12.8077 12.4535 12.8939 12.6259 13.0664C12.7984 13.2388 12.8846 13.4475 12.8846 13.6923C12.8846 13.9372 12.7984 14.1458 12.6259 14.3183C12.4535 14.4907 12.2448 14.5769 12 14.5769ZM7.99998 14.5769C7.75511 14.5769 7.54646 14.4907 7.37403 14.3183C7.20159 14.1458 7.11538 13.9372 7.11538 13.6923C7.11538 13.4475 7.20159 13.2388 7.37403 13.0664C7.54646 12.8939 7.75511 12.8077 7.99998 12.8077C8.24484 12.8077 8.45349 12.8939 8.62593 13.0664C8.79836 13.2388 8.88458 13.4475 8.88458 13.6923C8.88458 13.9372 8.79836 14.1458 8.62593 14.3183C8.45349 14.4907 8.24484 14.5769 7.99998 14.5769ZM16 14.5769C15.7551 14.5769 15.5465 14.4907 15.374 14.3183C15.2016 14.1458 15.1154 13.9372 15.1154 13.6923C15.1154 13.4475 15.2016 13.2388 15.374 13.0664C15.5465 12.8939 15.7551 12.8077 16 12.8077C16.2448 12.8077 16.4535 12.8939 16.6259 13.0664C16.7984 13.2388 16.8846 13.4475 16.8846 13.6923C16.8846 13.9372 16.7984 14.1458 16.6259 14.3183C16.4535 14.4907 16.2448 14.5769 16 14.5769ZM12 18.5C11.7551 18.5 11.5465 18.4138 11.374 18.2413C11.2016 18.0689 11.1154 17.8603 11.1154 17.6154C11.1154 17.3705 11.2016 17.1619 11.374 16.9894C11.5465 16.817 11.7551 16.7308 12 16.7308C12.2448 16.7308 12.4535 16.817 12.6259 16.9894C12.7984 17.1619 12.8846 17.3705 12.8846 17.6154C12.8846 17.8603 12.7984 18.0689 12.6259 18.2413C12.4535 18.4138 12.2448 18.5 12 18.5ZM7.99998 18.5C7.75511 18.5 7.54646 18.4138 7.37403 18.2413C7.20159 18.0689 7.11538 17.8603 7.11538 17.6154C7.11538 17.3705 7.20159 17.1619 7.37403 16.9894C7.54646 16.817 7.75511 16.7308 7.99998 16.7308C8.24484 16.7308 8.45349 16.817 8.62593 16.9894C8.79836 17.1619 8.88458 17.3705 8.88458 17.6154C8.88458 17.8603 8.79836 18.0689 8.62593 18.2413C8.45349 18.4138 8.24484 18.5 7.99998 18.5ZM16 18.5C15.7551 18.5 15.5465 18.4138 15.374 18.2413C15.2016 18.0689 15.1154 17.8603 15.1154 17.6154C15.1154 17.3705 15.2016 17.1619 15.374 16.9894C15.5465 16.817 15.7551 16.7308 16 16.7308C16.2448 16.7308 16.4535 16.817 16.6259 16.9894C16.7984 17.1619 16.8846 17.3705 16.8846 17.6154C16.8846 17.8603 16.7984 18.0689 16.6259 18.2413C16.4535 18.4138 16.2448 18.5 16 18.5Z" fill="white"/>
  </g>
</svg>