<svg xmlns="http://www.w3.org/2000/svg" width="130" height="100" viewBox="0 0 130 100" fill="none">
  <path d="M103.6 68.4093H26.4095C20.051 68.4093 15.241 62.6559 16.3771 56.4086L24.0457 14.2508C24.9252 9.4121 29.1489 5.89056 34.0781 5.89056H93.0449C97.7267 5.89056 101.804 9.07367 102.94 13.6014L113.495 55.7592C115.107 62.1803 110.233 68.4093 103.6 68.4093Z" fill="#FFD878"/>
  <path d="M116.555 36.0477H13.4361C6.36213 36.0477 0.627563 41.7728 0.627563 48.835V75.0316C0.627563 82.0938 6.36213 87.8189 13.4361 87.8189H116.555C123.629 87.8189 129.363 82.0938 129.363 75.0316V48.835C129.363 41.7728 123.629 36.0477 116.555 36.0477Z" fill="#FFD878"/>
  <path d="M60.7487 20.7542V40.4474C60.7487 42.3316 58.8155 43.8683 56.4334 43.8683H33.8124C31.0454 43.8683 28.9932 41.8377 29.5978 39.6973L35.1317 20.1688C35.5715 18.623 37.294 17.5162 39.2913 17.4979L56.3785 17.3333C58.7881 17.3058 60.7487 18.8425 60.7487 20.7542Z" fill="#7BC7FF"/>
  <path d="M69.2511 20.2877V39.9809C69.2511 41.8651 71.1843 43.4018 73.5664 43.4018H96.1875C98.9544 43.4018 101.007 41.3712 100.402 39.2308L94.8681 19.7023C94.4284 18.1565 92.7059 17.0497 90.7086 17.0314L73.6214 16.8668C71.2118 16.8393 69.2511 18.376 69.2511 20.2877Z" fill="#7BC7FF"/>
  <path d="M36.332 99.2067C45.4502 99.2067 52.842 91.8272 52.842 82.7241C52.842 73.621 45.4502 66.2415 36.332 66.2415C27.2138 66.2415 19.822 73.621 19.822 82.7241C19.822 91.8272 27.2138 99.2067 36.332 99.2067Z" fill="#4C4B47"/>
  <path d="M93.6771 99.2067C102.795 99.2067 110.187 91.8272 110.187 82.7241C110.187 73.621 102.795 66.2415 93.6771 66.2415C84.5589 66.2415 77.1671 73.621 77.1671 82.7241C77.1671 91.8272 84.5589 99.2067 93.6771 99.2067Z" fill="#4C4B47"/>
  <path d="M72.8061 0H57.194C56.2831 0 55.5448 0.737133 55.5448 1.64643V7.34492C55.5448 8.25422 56.2831 8.99135 57.194 8.99135H72.8061C73.7169 8.99135 74.4552 8.25422 74.4552 7.34492V1.64643C74.4552 0.737133 73.7169 0 72.8061 0Z" fill="#7F0018"/>
</svg>