<svg xmlns="http://www.w3.org/2000/svg" width="19" height="19" viewBox="0 0 19 19" fill="none">
  <circle cx="9.5" cy="9.5" r="9.5" fill="black"/>
  <mask id="mask0_103_120" style="mask-type:alpha" maskUnits="userSpaceOnUse" x="3" y="3" width="14" height="14">
    <rect x="3.30444" y="3.30444" width="13.2174" height="13.2174" fill="#D9D9D9"/>
  </mask>
  <g mask="url(#mask0_103_120)">
    <path d="M8.56384 11.6478L13.2312 6.9804C13.3414 6.87026 13.4722 6.81519 13.6236 6.81519C13.7751 6.81519 13.9059 6.87026 14.016 6.9804C14.1262 7.09055 14.1812 7.22135 14.1812 7.37279C14.1812 7.52424 14.1262 7.65504 14.016 7.76519L8.94935 12.8319C8.83921 12.942 8.7107 12.9971 8.56384 12.9971C8.41698 12.9971 8.28848 12.942 8.17834 12.8319L5.81022 10.4637C5.70008 10.3536 5.6473 10.2228 5.65189 10.0713C5.65648 9.9199 5.71384 9.7891 5.82399 9.67895C5.93413 9.56881 6.06493 9.51374 6.21638 9.51374C6.36783 9.51374 6.49863 9.56881 6.60877 9.67895L8.56384 11.6478Z" fill="white"/>
  </g>
</svg>