<svg xmlns="http://www.w3.org/2000/svg" width="30" height="30" viewBox="0 0 30 30" fill="none">
  <mask id="mask0_22_410" style="mask-type:alpha" maskUnits="userSpaceOnUse" x="0" y="0" width="30" height="30">
    <rect width="30" height="30" fill="#D9D9D9"/>
  </mask>
  <g mask="url(#mask0_22_410)">
    <path d="M14.9997 16.5938L9.8747 21.7188C9.64554 21.9479 9.38512 22.0573 9.09345 22.0469C8.80179 22.0365 8.54137 21.9167 8.3122 21.6875C8.08304 21.4583 7.96845 21.1927 7.96845 20.8906C7.96845 20.5885 8.08304 20.3229 8.3122 20.0938L13.406 15L8.28095 9.875C8.05179 9.64583 7.94241 9.38021 7.95283 9.07812C7.96324 8.77604 8.08304 8.51042 8.3122 8.28125C8.54137 8.05208 8.80699 7.9375 9.10908 7.9375C9.41116 7.9375 9.67679 8.05208 9.90595 8.28125L14.9997 13.4062L20.1247 8.28125C20.3539 8.05208 20.6195 7.9375 20.9216 7.9375C21.2237 7.9375 21.4893 8.05208 21.7185 8.28125C21.9476 8.51042 22.0622 8.77604 22.0622 9.07812C22.0622 9.38021 21.9476 9.64583 21.7185 9.875L16.5935 15L21.7185 20.125C21.9476 20.3542 22.0622 20.6146 22.0622 20.9063C22.0622 21.1979 21.9476 21.4583 21.7185 21.6875C21.4893 21.9167 21.2237 22.0313 20.9216 22.0313C20.6195 22.0313 20.3539 21.9167 20.1247 21.6875L14.9997 16.5938Z" fill="white"/>
  </g>
</svg>