<svg xmlns="http://www.w3.org/2000/svg" width="18" height="18" viewBox="0 0 18 18" fill="none">
  <circle cx="9" cy="9" r="9" fill="#D9D9D9"/>
  <mask id="mask0_79_168" style="mask-type:alpha" maskUnits="userSpaceOnUse" x="0" y="0" width="18" height="18">
    <rect width="18" height="18" fill="#D9D9D9"/>
  </mask>
  <g mask="url(#mask0_79_168)">
    <path d="M8.99576 9.90785L6.09003 12.8136C5.9601 12.9435 5.81245 13.0055 5.64709 12.9996C5.48172 12.9937 5.33407 12.9258 5.20414 12.7959C5.07421 12.6659 5.00924 12.5153 5.00924 12.3441C5.00924 12.1728 5.07421 12.0222 5.20414 11.8922L8.09215 9.00424L5.18642 6.09851C5.05649 5.96858 4.99448 5.81797 5.00039 5.6467C5.00629 5.47543 5.07421 5.32483 5.20414 5.1949C5.33407 5.06497 5.48467 5 5.65595 5C5.82722 5 5.97782 5.06497 6.10775 5.1949L8.99576 8.10063L11.9015 5.1949C12.0314 5.06497 12.182 5 12.3533 5C12.5246 5 12.6752 5.06497 12.8051 5.1949C12.935 5.32483 13 5.47543 13 5.6467C13 5.81797 12.935 5.96858 12.8051 6.09851L9.89937 9.00424L12.8051 11.91C12.935 12.0399 13 12.1875 13 12.3529C13 12.5183 12.935 12.6659 12.8051 12.7959C12.6752 12.9258 12.5246 12.9908 12.3533 12.9908C12.182 12.9908 12.0314 12.9258 11.9015 12.7959L8.99576 9.90785Z" fill="white"/>
  </g>
</svg>