<svg xmlns="http://www.w3.org/2000/svg" width="28" height="16" viewBox="0 0 28 16" fill="none">
  <g clip-path="url(#clip0_52_51)">
    <path d="M25.157 8.40494C25.1677 8.29271 25.173 8.1792 25.173 8.06441C25.173 6.04161 23.5551 4.38103 21.4883 4.19482C20.6947 3.25739 19.4856 2.59035 18.0882 2.38246C17.1931 0.965484 15.4269 0 13.3948 0C10.9619 0 8.91249 1.38127 8.28056 3.26632C8.16433 3.55456 8.08417 3.85939 8.04275 4.17696H7.90915C5.66065 4.17696 3.83701 5.9179 3.83701 8.06441C3.83701 8.12053 3.83834 8.17664 3.84102 8.23149C1.6994 8.34627 0 10.04 0 12.1126C0 14.2591 1.82365 16 4.07214 16H23.9279C26.1764 16 28 14.2591 28 12.1126C28 10.3742 26.8043 8.90363 25.157 8.40622V8.40494Z" fill="#7BD0FF"/>
    <path d="M14.2046 7.74431C14.5079 7.74431 14.7537 7.50962 14.7537 7.22012C14.7537 6.93061 14.5079 6.69592 14.2046 6.69592C13.9014 6.69592 13.6555 6.93061 13.6555 7.22012C13.6555 7.50962 13.9014 7.74431 14.2046 7.74431Z" fill="black"/>
    <path d="M17.4737 7.74431C17.7769 7.74431 18.0228 7.50962 18.0228 7.22012C18.0228 6.93061 17.7769 6.69592 17.4737 6.69592C17.1704 6.69592 16.9246 6.93061 16.9246 7.22012C16.9246 7.50962 17.1704 7.74431 17.4737 7.74431Z" fill="black"/>
    <path d="M16.8591 9.46506C16.4463 9.46506 16.0736 9.32604 15.8104 9.17172C14.7563 9.75968 13.8825 9.29798 13.5539 8.9498C13.431 8.81843 13.4416 8.61692 13.5779 8.49958C13.7142 8.38224 13.9239 8.39244 14.0482 8.52126C14.1137 8.58886 14.7082 9.14621 15.6273 8.52636C15.7516 8.44218 15.9186 8.44984 16.0348 8.54294C16.115 8.60671 16.8565 9.15514 17.6033 8.54422C17.7436 8.42943 17.9547 8.44474 18.0736 8.57865C18.1938 8.71257 18.1778 8.91409 18.0375 9.02887C17.6447 9.35028 17.2346 9.46506 16.8578 9.46506H16.8591Z" fill="black"/>
  </g>
  <defs>
    <clipPath id="clip0_52_51">
      <rect width="28" height="16" fill="white"/>
    </clipPath>
  </defs>
</svg>