<svg width="25" height="25" viewBox="0 0 25 25" fill="none" xmlns="http://www.w3.org/2000/svg">
<path d="M14.0625 21.875C14.0625 21.875 15.625 21.875 15.625 20.3125C15.625 18.75 14.0625 14.0625 7.8125 14.0625C1.5625 14.0625 0 18.75 0 20.3125C0 21.875 1.5625 21.875 1.5625 21.875L14.0625 21.875ZM7.8125 12.5C6.5693 12.5 5.37701 12.0061 4.49794 11.1271C3.61886 10.248 3.125 9.0557 3.125 7.8125C3.125 6.5693 3.61886 5.37701 4.49794 4.49794C5.37701 3.61886 6.5693 3.125 7.8125 3.125C9.0557 3.125 10.248 3.61886 11.1271 4.49794C12.0061 5.37701 12.5 6.5693 12.5 7.8125C12.5 9.0557 12.0061 10.248 11.1271 11.1271C10.248 12.0061 9.0557 12.5 7.8125 12.5Z" fill="white"/>
<path fill-rule="evenodd" clip-rule="evenodd" d="M16.85 21.8751C17.0816 21.3873 17.1972 20.8525 17.1875 20.3126C17.1875 18.1954 16.125 16.0157 14.1625 14.5001C15.142 14.1982 16.1626 14.0506 17.1875 14.0626C23.4375 14.0626 25 18.7501 25 20.3126C25 21.8751 23.4375 21.8751 23.4375 21.8751L16.85 21.8751Z" fill="white"/>
<path d="M17.9688 12.5C16.9327 12.5 15.9392 12.0884 15.2066 11.3559C14.4741 10.6233 14.0625 9.62975 14.0625 8.59375C14.0625 7.55775 14.4741 6.56418 15.2066 5.83161C15.9392 5.09905 16.9327 4.6875 17.9688 4.6875C19.0048 4.6875 19.9983 5.09905 20.7309 5.83161C21.4634 6.56418 21.875 7.55775 21.875 8.59375C21.875 9.62975 21.4634 10.6233 20.7309 11.3559C19.9983 12.0884 19.0048 12.5 17.9688 12.5Z" fill="white"/>
</svg>
