<svg xmlns="http://www.w3.org/2000/svg" width="12" height="16" viewBox="0 0 12 16" fill="none">
  <path d="M5.99993 15.425C5.84716 15.425 5.70584 15.3791 5.57598 15.2874C5.44612 15.1958 5.35063 15.0659 5.28952 14.8979C4.93813 13.8437 4.51417 12.969 4.01764 12.2739C3.52112 11.5788 3.02841 10.918 2.53952 10.2916C2.06591 9.66523 1.65723 9.0121 1.31348 8.33224C0.969727 7.65238 0.797852 6.80065 0.797852 5.77703C0.797852 4.29509 1.29438 3.05759 2.28743 2.06453C3.28049 1.07148 4.51799 0.574951 5.99993 0.574951C7.48188 0.574951 8.71938 1.07148 9.71243 2.06453C10.7055 3.05759 11.202 4.29509 11.202 5.77703C11.202 6.80065 11.034 7.65238 10.6979 8.33224C10.3617 9.0121 9.95688 9.66523 9.48327 10.2916C9.00966 10.918 8.52077 11.575 8.0166 12.2625C7.51243 12.95 7.08466 13.8208 6.73327 14.875C6.67216 15.043 6.57667 15.1767 6.44681 15.276C6.31695 15.3753 6.16799 15.425 5.99993 15.425ZM5.99993 7.63328C6.51938 7.63328 6.95862 7.45377 7.31764 7.09474C7.67667 6.73571 7.85618 6.29648 7.85618 5.77703C7.85618 5.25759 7.67667 4.81453 7.31764 4.44787C6.95862 4.0812 6.51938 3.89787 5.99993 3.89787C5.48049 3.89787 5.04125 4.0812 4.68223 4.44787C4.3232 4.81453 4.14368 5.25759 4.14368 5.77703C4.14368 6.29648 4.3232 6.73571 4.68223 7.09474C5.04125 7.45377 5.48049 7.63328 5.99993 7.63328Z" fill="black"/>
</svg>