<svg xmlns="http://www.w3.org/2000/svg" width="23" height="26" viewBox="0 0 23 26" fill="none">
  <g clip-path="url(#clip0_53_110)">
    <path d="M2.61409 1.93564C2.61409 1.93564 0.183177 3.83918 0.0820533 9.54721C-0.0190706 15.2552 0.0820533 20.8646 0.0820533 20.8646C0.0820533 20.8646 1.29817 23.6693 3.62796 21.7657C5.95775 19.8622 7.7806 21.5658 7.7806 21.5658C7.7806 21.5658 10.3126 22.8681 11.731 21.4658C13.1494 20.0634 15.0733 21.6657 15.0733 21.6657C15.0733 21.6657 17.7787 22.7071 18.7204 20.9646C19.3311 19.8349 18.6245 12.944 18.5037 8.43313C18.3789 3.79892 14.288 0.141164 9.60083 0.00742214C7.76878 -0.0445163 4.43826 0.133373 2.61409 1.93693V1.93564Z" fill="#C1C1C1"/>
    <path d="M5.21095 9.93458C5.15339 9.93458 5.10236 9.92823 5.05527 9.91807C4.56988 9.81646 4.35401 9.28554 4.33177 9.22584C4.26897 9.062 4.35532 8.87909 4.5254 8.81813C4.69417 8.75716 4.88126 8.84099 4.94537 9.00357C4.98854 9.11153 5.10106 9.27919 5.19525 9.29697C5.26198 9.31094 5.37188 9.24744 5.49224 9.12804C5.93445 8.69365 6.45516 8.67333 6.88559 9.0747C7.00203 9.18266 7.11978 9.24617 7.22837 9.2576C7.43116 9.27919 7.43247 9.27538 7.52667 9.08232C7.60255 8.92609 7.70591 8.71144 7.95972 8.55648C8.75125 8.07382 9.19608 8.40152 9.35176 8.56537C9.44465 8.66317 9.51792 8.69873 9.55586 8.69746H9.58726C9.7194 8.69492 9.76388 8.69365 9.94574 8.31261C10.0216 8.15384 10.2153 8.08398 10.3801 8.15765C10.5436 8.23132 10.6156 8.4193 10.5397 8.57934C10.2401 9.2106 9.99807 9.32491 9.60034 9.33254H9.57156C9.40017 9.33635 9.14113 9.28173 8.87161 8.99595C8.74471 8.86131 8.46473 8.99976 8.31035 9.09502C8.224 9.14836 8.18344 9.2233 8.12064 9.35286C8.01074 9.58021 7.82758 9.95999 7.15903 9.89013C6.90653 9.86346 6.65533 9.74025 6.43423 9.53449C6.29031 9.39985 6.17126 9.36683 5.95931 9.5764C5.67279 9.85837 5.41243 9.93458 5.21357 9.93458H5.21095Z" fill="black"/>
    <path d="M5.15079 7.52624C5.53017 7.52624 5.83772 7.18928 5.83772 6.77362C5.83772 6.35796 5.53017 6.021 5.15079 6.021C4.77141 6.021 4.46387 6.35796 4.46387 6.77362C4.46387 7.18928 4.77141 7.52624 5.15079 7.52624Z" fill="black"/>
    <path d="M9.11979 7.52624C9.49917 7.52624 9.80672 7.18928 9.80672 6.77362C9.80672 6.35796 9.49917 6.021 9.11979 6.021C8.74041 6.021 8.43286 6.35796 8.43286 6.77362C8.43286 7.18928 8.74041 7.52624 9.11979 7.52624Z" fill="black"/>
  </g>
  <defs>
    <clipPath id="clip0_53_110">
      <rect width="22" height="26" fill="white" transform="translate(0.0371094)"/>
    </clipPath>
  </defs>
</svg>