<svg xmlns="http://www.w3.org/2000/svg" width="121" height="117" viewBox="0 0 121 117" fill="none">
  <path d="M121 40.3378C121 62.6152 90.5 108 80.5 108C68 108 40 62.6152 40 40.3378C40 18.0604 58.1274 0 80.4944 0C102.861 0 120.994 18.0604 120.994 40.3378H121Z" fill="#FF7676"/>
  <path d="M80.5 60C92.3741 60 102 50.3741 102 38.5C102 26.6259 92.3741 17 80.5 17C68.6259 17 59 26.6259 59 38.5C59 50.3741 68.6259 60 80.5 60Z" fill="white"/>
  <path d="M2.21664 100.297L0.0368371 113.817C-0.273771 115.74 1.42903 117.368 3.29268 116.927L21.9236 112.511C24.3308 111.94 24.7635 108.643 22.5948 107.439L6.14362 98.3344C4.51847 97.4353 2.51616 98.4362 2.21664 100.297Z" fill="#FFD878"/>
  <path d="M26.8478 67.4154L8.26472 76.4929C5.62268 77.7848 5.20639 81.356 7.471 83.3193L30.1226 102.941C33.0477 105.474 37.4937 103.139 36.9553 99.3586L32.8868 70.6594C32.4871 67.8272 29.4011 66.1742 26.8478 67.421V67.4154Z" fill="#FFD878"/>
</svg>