<svg xmlns="http://www.w3.org/2000/svg" width="172" height="137" viewBox="0 0 172 137" fill="none">
  <g clip-path="url(#clip0_86_7)">
    <path d="M129.932 4.11299C129.932 4.11299 124.83 8.157 124.618 20.2835C124.406 32.4101 124.618 44.3269 124.618 44.3269C124.618 44.3269 127.17 50.2854 132.059 46.2414C136.948 42.1973 140.773 45.8166 140.773 45.8166C140.773 45.8166 146.087 48.5834 149.063 45.6041C152.039 42.6249 156.077 46.029 156.077 46.029C156.077 46.029 161.754 48.2413 163.73 44.5393C165.011 42.1394 163.529 27.4999 163.275 17.9167C163.013 8.07149 154.429 0.297929 144.593 0.0137997C140.748 -0.0965418 133.759 0.281378 129.932 4.11299Z" fill="#C1C1C1"/>
    <path d="M135.3 21.2573C135.179 21.2573 135.071 21.2435 134.972 21.2214C133.95 21.0007 133.495 19.8477 133.448 19.718C133.316 19.3622 133.498 18.9649 133.856 18.8325C134.211 18.7001 134.605 18.8822 134.74 19.2353C134.831 19.4698 135.068 19.8339 135.267 19.8725C135.407 19.9028 135.639 19.7649 135.892 19.5056C136.824 18.5622 137.921 18.5181 138.827 19.3898C139.073 19.6242 139.321 19.7622 139.549 19.787C139.977 19.8339 139.979 19.8256 140.178 19.4063C140.338 19.067 140.555 18.6008 141.09 18.2643C142.757 17.216 143.694 17.9277 144.022 18.2836C144.218 18.496 144.372 18.5732 144.452 18.5705H144.518C144.797 18.565 144.89 18.5622 145.273 17.7346C145.433 17.3898 145.841 17.2381 146.188 17.3981C146.533 17.5581 146.684 17.9664 146.525 18.3139C145.893 19.6849 145.384 19.9332 144.546 19.9497H144.485C144.124 19.958 143.579 19.8394 143.011 19.2187C142.744 18.9263 142.154 19.227 141.829 19.4339C141.647 19.5498 141.561 19.7125 141.429 19.9939C141.197 20.4877 140.812 21.3125 139.403 21.1607C138.872 21.1028 138.342 20.8352 137.877 20.3883C137.573 20.0959 137.323 20.0242 136.876 20.4794C136.273 21.0918 135.724 21.2573 135.305 21.2573H135.3Z" fill="black"/>
    <path d="M84.4319 78.7452C95.4529 78.7452 104.387 69.8023 104.387 58.7706C104.387 47.739 95.4529 38.7961 84.4319 38.7961C73.4109 38.7961 64.4766 47.739 64.4766 58.7706C64.4766 69.8023 73.4109 78.7452 84.4319 78.7452Z" fill="#FFD878"/>
    <path d="M73.9209 55.648C74.7778 55.648 75.4725 54.9526 75.4725 54.0949C75.4725 53.2372 74.7778 52.5419 73.9209 52.5419C73.064 52.5419 72.3694 53.2372 72.3694 54.0949C72.3694 54.9526 73.064 55.648 73.9209 55.648Z" fill="black"/>
    <path d="M82.2574 55.648C83.1143 55.648 83.8089 54.9526 83.8089 54.0949C83.8089 53.2372 83.1143 52.5419 82.2574 52.5419C81.4005 52.5419 80.7058 53.2372 80.7058 54.0949C80.7058 54.9526 81.4005 55.648 82.2574 55.648Z" fill="black"/>
    <path d="M78.3964 64.2132C78.0629 64.2132 77.7322 64.1912 77.4126 64.1525C73.4413 63.656 72.5705 60.0809 72.5347 59.9292C72.4134 59.4106 72.7386 58.892 73.2567 58.7706C73.7748 58.652 74.2901 58.972 74.4114 59.4879C74.439 59.601 75.0453 61.9126 77.6496 62.2381C78.8456 62.3871 81.7476 62.3843 82.8058 59.1265C82.9712 58.6189 83.5141 58.3431 84.0212 58.5086C84.5282 58.6741 84.8038 59.2175 84.6385 59.7251C83.5554 63.0519 80.8574 64.216 78.3909 64.216L78.3964 64.2132Z" fill="black"/>
    <path d="M51.8932 79.5424C51.9153 79.2997 51.9263 79.0542 51.9263 78.8059C51.9263 74.4309 48.5889 70.8392 44.3256 70.4365C42.6886 68.409 40.1945 66.9663 37.3119 66.5166C35.4654 63.4519 31.8249 61.3637 27.6305 61.3637C22.612 61.3637 18.3845 64.3512 17.0809 68.4283C16.8412 69.0517 16.6758 69.711 16.5904 70.3979H16.3148C11.6767 70.3979 7.91489 74.1633 7.91489 78.8059C7.91489 78.9273 7.91764 79.0486 7.92316 79.1673C3.50548 79.4155 0 83.0789 0 87.5615C0 92.2041 3.76178 95.9695 8.39992 95.9695H49.3578C53.996 95.9695 57.7577 92.2041 57.7577 87.5615C57.7577 83.8016 55.2912 80.621 51.8932 79.5452V79.5424Z" fill="#7BD0FF"/>
    <path d="M29.3004 78.1135C29.9259 78.1135 30.4331 77.6059 30.4331 76.9797C30.4331 76.3536 29.9259 75.846 29.3004 75.846C28.6748 75.846 28.1677 76.3536 28.1677 76.9797C28.1677 77.6059 28.6748 78.1135 29.3004 78.1135Z" fill="black"/>
    <path d="M36.044 78.1135C36.6696 78.1135 37.1767 77.6059 37.1767 76.9797C37.1767 76.3536 36.6696 75.846 36.044 75.846C35.4185 75.846 34.9114 76.3536 34.9114 76.9797C34.9114 77.6059 35.4185 78.1135 36.044 78.1135Z" fill="black"/>
    <path d="M34.7764 82.5851C33.9248 82.5851 33.1559 82.2844 32.613 81.9506C30.4386 83.2223 28.6363 82.2237 27.9583 81.4706C27.7048 81.1865 27.7268 80.7506 28.0079 80.4969C28.289 80.2431 28.7217 80.2651 28.978 80.5438C29.113 80.69 30.3394 81.8954 32.2355 80.5548C32.4917 80.3727 32.8362 80.3893 33.076 80.5907C33.2413 80.7286 34.7709 81.9148 36.3114 80.5934C36.6008 80.3451 37.0362 80.3782 37.2815 80.6679C37.5295 80.9575 37.4964 81.3934 37.2071 81.6417C36.3968 82.3368 35.5508 82.5851 34.7736 82.5851H34.7764Z" fill="black"/>
    <path d="M138.377 85.5307C141.844 84.8057 147.726 83.8423 153.93 84.0219C158.086 84.1427 161.153 87.9377 160.502 92.0625C159.852 96.1873 158.59 99.5218 157.319 107.687L164.71 107.05C166.489 106.896 168.147 108.023 168.619 109.751C169.565 113.222 169.24 120.668 161.823 136.24C161.293 137.351 159.673 137.213 159.338 136.028L155.342 121.916L145.271 121.818C142.452 121.465 140.162 119.362 139.564 116.576C138.065 109.63 135.418 96.6544 135.008 89.9789C134.878 87.856 136.306 85.9586 138.377 85.5242V85.5307Z" fill="#80DD89"/>
    <path d="M141.264 95.2996C141.914 95.2996 142.441 94.772 142.441 94.1212C142.441 93.4705 141.914 92.9429 141.264 92.9429C140.614 92.9429 140.087 93.4705 140.087 94.1212C140.087 94.772 140.614 95.2996 141.264 95.2996Z" fill="black"/>
    <path d="M148.259 95.2996C148.909 95.2996 149.436 94.772 149.436 94.1212C149.436 93.4705 148.909 92.9429 148.259 92.9429C147.609 92.9429 147.082 93.4705 147.082 94.1212C147.082 94.772 147.609 95.2996 148.259 95.2996Z" fill="black"/>
    <path d="M142.089 98.3198C141.814 98.3198 141.561 98.145 141.471 97.8699C141.361 97.53 141.549 97.1642 141.888 97.0573C142.483 96.8663 143.547 96.3678 143.867 95.8499C143.961 95.6977 144.113 95.5909 144.291 95.5553C144.469 95.5197 144.65 95.5553 144.796 95.6621C144.808 95.6718 146.16 96.6236 147.447 96.7466C147.803 96.7789 148.065 97.0962 148.03 97.4523C147.994 97.8084 147.68 98.0673 147.325 98.035C146.225 97.9314 145.154 97.394 144.546 97.0379C143.735 97.8084 142.454 98.2357 142.283 98.2907C142.218 98.3101 142.15 98.3231 142.085 98.3231L142.089 98.3198Z" fill="black"/>
    <path d="M135.283 16.0823C136.14 16.0823 136.835 15.387 136.835 14.5292C136.835 13.6715 136.14 12.9762 135.283 12.9762C134.427 12.9762 133.732 13.6715 133.732 14.5292C133.732 15.387 134.427 16.0823 135.283 16.0823Z" fill="black"/>
    <path d="M143.62 16.0823C144.477 16.0823 145.171 15.387 145.171 14.5292C145.171 13.6715 144.477 12.9762 143.62 12.9762C142.763 12.9762 142.068 13.6715 142.068 14.5292C142.068 15.387 142.763 16.0823 143.62 16.0823Z" fill="black"/>
  </g>
  <defs>
    <clipPath id="clip0_86_7">
      <rect width="172" height="137" fill="white"/>
    </clipPath>
  </defs>
</svg>