<svg xmlns="http://www.w3.org/2000/svg" width="26" height="26" viewBox="0 0 26 26" fill="none">
  <path d="M22.0241 3.97568C21.8191 3.77219 21.5621 3.62914 21.2811 3.56224C21.0002 3.49536 20.7062 3.50721 20.4316 3.59651L4.58243 8.88318C4.28849 8.97631 4.02875 9.15448 3.836 9.39515C3.64325 9.63582 3.52616 9.92822 3.4995 10.2354C3.47284 10.5426 3.5378 10.8508 3.6862 11.1211C3.8346 11.3914 4.05976 11.6116 4.33326 11.7541L10.9091 15.0041L14.1591 21.6016C14.2897 21.8597 14.4896 22.0766 14.7364 22.2277C14.9832 22.3788 15.2672 22.4584 15.5566 22.4574H15.6649C15.9749 22.4345 16.2707 22.319 16.5142 22.1258C16.7576 21.9326 16.9373 21.6707 17.0299 21.3741L22.3924 5.56818C22.4882 5.2951 22.5044 5.00044 22.4392 4.71851C22.374 4.43658 22.23 4.17897 22.0241 3.97568ZM5.25409 10.3782L19.0883 5.76318L11.4074 13.4441L5.25409 10.3782ZM15.6324 20.7457L12.5558 14.5924L20.2366 6.91151L15.6324 20.7457Z" fill="white"/>
</svg>