<svg xmlns="http://www.w3.org/2000/svg" width="21" height="22" viewBox="0 0 21 22" fill="none">
  <path d="M10.0185 21.0185C15.5516 21.0185 20.0371 16.5331 20.0371 11C20.0371 5.4669 15.5516 0.981445 10.0185 0.981445C4.48545 0.981445 0 5.4669 0 11C0 16.5331 4.48545 21.0185 10.0185 21.0185Z" fill="#FFD878"/>
  <path d="M4.63101 9.71063C5.06122 9.71063 5.40997 9.36187 5.40997 8.93167C5.40997 8.50146 5.06122 8.15271 4.63101 8.15271C4.2008 8.15271 3.85205 8.50146 3.85205 8.93167C3.85205 9.36187 4.2008 9.71063 4.63101 9.71063Z" fill="black"/>
  <path d="M8.81607 9.71063C9.24627 9.71063 9.59503 9.36187 9.59503 8.93167C9.59503 8.50146 9.24627 8.15271 8.81607 8.15271C8.38586 8.15271 8.03711 8.50146 8.03711 8.93167C8.03711 9.36187 8.38586 9.71063 8.81607 9.71063Z" fill="black"/>
  <path d="M6.61652 13.2943C6.46118 13.2943 6.30712 13.2842 6.1582 13.2666C4.30822 13.0398 3.90253 11.4069 3.88584 11.3376C3.82936 11.1007 3.98085 10.8638 4.2222 10.8084C4.46356 10.7542 4.70364 10.9004 4.76012 11.136C4.77296 11.1876 5.0554 12.2435 6.26861 12.3922C6.82578 12.4602 8.17764 12.4589 8.67063 10.9709C8.74766 10.7391 9.00057 10.6131 9.23679 10.6887C9.47301 10.7643 9.6014 11.0125 9.52437 11.2443C9.01983 12.7639 7.76297 13.2956 6.61395 13.2956L6.61652 13.2943Z" fill="black"/>
</svg>