<svg xmlns="http://www.w3.org/2000/svg" width="16" height="26" viewBox="0 0 16 26" fill="none">
  <g clip-path="url(#clip0_52_63)">
    <path d="M1.58862 1.22245C3.21984 0.878946 5.98801 0.424541 8.90767 0.510801C10.8633 0.567794 12.3063 2.35769 12.0003 4.30316C11.6942 6.24863 11.1005 7.82134 10.5022 11.6722L13.9804 11.3719C14.8174 11.2995 15.5978 11.8309 15.8197 12.6457C16.265 14.2831 16.112 17.7952 12.6215 25.1396C12.3721 25.6633 11.61 25.5986 11.4524 25.0395L9.57179 18.3836L4.83269 18.3374C3.50599 18.171 2.42871 17.179 2.14715 15.8651C1.44325 12.5903 0.19612 6.47044 0.00484199 3.32195C-0.0563669 2.32072 0.615401 1.42577 1.59015 1.22091L1.58862 1.22245Z" fill="#80DD89"/>
    <path d="M2.87536 5.65715C3.18298 5.65715 3.43236 5.40612 3.43236 5.09646C3.43236 4.7868 3.18298 4.53577 2.87536 4.53577C2.56774 4.53577 2.31836 4.7868 2.31836 5.09646C2.31836 5.40612 2.56774 5.65715 2.87536 5.65715Z" fill="black"/>
    <path d="M6.18517 5.65715C6.4928 5.65715 6.74218 5.40612 6.74218 5.09646C6.74218 4.7868 6.4928 4.53577 6.18517 4.53577C5.87755 4.53577 5.62817 4.7868 5.62817 5.09646C5.62817 5.40612 5.87755 5.65715 6.18517 5.65715Z" fill="black"/>
    <path d="M3.26566 7.09428C3.13559 7.09428 3.01623 7.0111 2.97338 6.88017C2.92136 6.71843 3.01011 6.54437 3.17078 6.49354C3.45234 6.40266 3.95579 6.16544 4.10728 5.91899C4.15165 5.84659 4.22357 5.79576 4.30774 5.77881C4.3919 5.76187 4.47759 5.77881 4.54645 5.82965C4.55257 5.83427 5.19221 6.28713 5.80123 6.34567C5.96956 6.36107 6.09351 6.51203 6.07667 6.68146C6.05984 6.8509 5.91141 6.97413 5.74309 6.95873C5.22281 6.90944 4.71631 6.65374 4.42862 6.4843C4.04454 6.8509 3.43857 7.05423 3.35747 7.08042C3.32686 7.08966 3.29473 7.09582 3.26413 7.09582L3.26566 7.09428Z" fill="black"/>
  </g>
  <defs>
    <clipPath id="clip0_52_63">
      <rect width="16" height="25" fill="white" transform="translate(0 0.5)"/>
    </clipPath>
  </defs>
</svg>