<svg xmlns="http://www.w3.org/2000/svg" width="20" height="20" viewBox="0 0 20 20" fill="none">
  <mask id="mask0_34_368" style="mask-type:alpha" maskUnits="userSpaceOnUse" x="0" y="0" width="20" height="20">
    <rect width="20" height="20" fill="#D9D9D9"/>
  </mask>
  <g mask="url(#mask0_34_368)">
    <path d="M9.99988 11.0625L6.58322 14.4792C6.43044 14.632 6.25683 14.7049 6.06238 14.6979C5.86794 14.691 5.69433 14.6111 5.54155 14.4584C5.38877 14.3056 5.31238 14.1285 5.31238 13.9271C5.31238 13.7257 5.38877 13.5486 5.54155 13.3959L8.93738 10L5.52072 6.58335C5.36794 6.43058 5.29502 6.25349 5.30197 6.0521C5.30891 5.85071 5.38877 5.67363 5.54155 5.52085C5.69433 5.36808 5.87141 5.29169 6.0728 5.29169C6.27419 5.29169 6.45127 5.36808 6.60405 5.52085L9.99988 8.93752L13.4165 5.52085C13.5693 5.36808 13.7464 5.29169 13.9478 5.29169C14.1492 5.29169 14.3263 5.36808 14.479 5.52085C14.6318 5.67363 14.7082 5.85071 14.7082 6.0521C14.7082 6.25349 14.6318 6.43058 14.479 6.58335L11.0624 10L14.479 13.4167C14.6318 13.5695 14.7082 13.7431 14.7082 13.9375C14.7082 14.132 14.6318 14.3056 14.479 14.4584C14.3263 14.6111 14.1492 14.6875 13.9478 14.6875C13.7464 14.6875 13.5693 14.6111 13.4165 14.4584L9.99988 11.0625Z" fill="white"/>
  </g>
</svg>