<svg xmlns="http://www.w3.org/2000/svg" width="24" height="24" viewBox="0 0 24 24" fill="none">
  <mask id="mask0_95_103" style="mask-type:alpha" maskUnits="userSpaceOnUse" x="0" y="0" width="24" height="24">
    <rect width="24" height="24" fill="#D9D9D9"/>
  </mask>
  <g mask="url(#mask0_95_103)">
    <path d="M11.9999 13.2749L7.89986 17.3749C7.71653 17.5582 7.50819 17.6457 7.27486 17.6374C7.04153 17.629 6.83319 17.5332 6.64986 17.3499C6.46653 17.1665 6.37486 16.954 6.37486 16.7124C6.37486 16.4707 6.46653 16.2582 6.64986 16.0749L10.7249 11.9999L6.62486 7.89985C6.44153 7.71652 6.35403 7.50402 6.36236 7.26235C6.37069 7.02069 6.46653 6.80819 6.64986 6.62485C6.83319 6.44152 7.04569 6.34985 7.28736 6.34985C7.52903 6.34985 7.74153 6.44152 7.92486 6.62485L11.9999 10.7249L16.0999 6.62485C16.2832 6.44152 16.4957 6.34985 16.7374 6.34985C16.979 6.34985 17.1915 6.44152 17.3749 6.62485C17.5582 6.80819 17.6499 7.02069 17.6499 7.26235C17.6499 7.50402 17.5582 7.71652 17.3749 7.89985L13.2749 11.9999L17.3749 16.0999C17.5582 16.2832 17.6499 16.4915 17.6499 16.7249C17.6499 16.9582 17.5582 17.1665 17.3749 17.3499C17.1915 17.5332 16.979 17.6249 16.7374 17.6249C16.4957 17.6249 16.2832 17.5332 16.0999 17.3499L11.9999 13.2749Z" fill="black"/>
  </g>
</svg>